<svg width="16" height="16" viewBox="0 0 16 16" fill="none" xmlns="http://www.w3.org/2000/svg">
<path d="M10.643 4.02448C11.5637 3.10382 13.0557 3.10382 13.9764 4.02448V4.02448C14.897 4.94515 14.897 6.43715 13.9764 7.35782L10.057 11.2772C9.13637 12.1978 7.64437 12.1978 6.7237 11.2772V11.2772C5.80304 10.3565 5.80304 8.86448 6.7237 7.94382L7.3097 7.35782" stroke="#656565" stroke-width="1.3" stroke-linecap="round" stroke-linejoin="round"/>
<path d="M5.35782 12.6434C4.43715 13.564 2.94515 13.564 2.02448 12.6434V12.6434C1.10382 11.7227 1.10382 10.2307 2.02448 9.31003L5.94382 5.3907C6.86448 4.47003 8.35648 4.47003 9.27715 5.3907V5.3907C10.1978 6.31136 10.1978 7.80336 9.27715 8.72403L8.66715 9.33403" stroke="#656565" stroke-width="1.3" stroke-linecap="round" stroke-linejoin="round"/>
</svg>
