<svg width="10" height="10" viewBox="0 0 10 10" fill="none" xmlns="http://www.w3.org/2000/svg">
<path d="M5.74968 4.97461L9.46218 1.26211C9.54561 1.16468 9.58921 1.03937 9.58426 0.9112C9.57931 0.783032 9.52617 0.661452 9.43548 0.570755C9.34478 0.480059 9.2232 0.426927 9.09503 0.421976C8.96686 0.417025 8.84155 0.460621 8.74413 0.544051L5.03163 4.25655L1.31913 0.538959C1.2217 0.455529 1.09639 0.411933 0.968219 0.416884C0.84005 0.421834 0.71847 0.474966 0.627774 0.565663C0.537078 0.656359 0.483945 0.777939 0.478995 0.906107C0.474044 1.03428 0.51764 1.15959 0.60107 1.25701L4.31357 4.97461L0.595977 8.68711C0.542667 8.73276 0.49937 8.78894 0.468802 8.85212C0.438235 8.9153 0.421057 8.98412 0.418348 9.05426C0.415639 9.12439 0.427457 9.19433 0.45306 9.25968C0.478663 9.32503 0.517498 9.38438 0.567128 9.43401C0.616757 9.48364 0.67611 9.52248 0.741461 9.54808C0.806812 9.57368 0.876749 9.5855 0.946884 9.58279C1.01702 9.58008 1.08584 9.56291 1.14902 9.53234C1.2122 9.50177 1.26838 9.45847 1.31403 9.40516L5.03163 5.69266L8.74413 9.40516C8.84155 9.48859 8.96686 9.53219 9.09503 9.52724C9.2232 9.52229 9.34478 9.46916 9.43548 9.37846C9.52617 9.28776 9.57931 9.16618 9.58426 9.03801C9.58921 8.90985 9.54561 8.78453 9.46218 8.68711L5.74968 4.97461Z" fill="#6A7187"/>
</svg>
