<svg width="23" height="23" viewBox="0 0 23 23" fill="none" xmlns="http://www.w3.org/2000/svg">
<mask id="mask0_3435_2632" style="mask-type:alpha" maskUnits="userSpaceOnUse" x="0" y="0" width="23" height="23">
<rect x="0.856445" y="0.745117" width="21.9394" height="22" fill="#D9D9D9"/>
</mask>
<g mask="url(#mask0_3435_2632)">
<path d="M9.08314 18.736C8.67177 18.736 8.32135 18.5909 8.03187 18.3006C7.7424 18.0103 7.59766 17.6589 7.59766 17.2464C7.59766 16.8339 7.7424 16.4825 8.03187 16.1923C8.32135 15.902 8.67177 15.7568 9.08314 15.7568C9.4945 15.7568 9.84492 15.902 10.1344 16.1923C10.4239 16.4825 10.5686 16.8339 10.5686 17.2464C10.5686 17.6589 10.4239 18.0103 10.1344 18.3006C9.84492 18.5909 9.4945 18.736 9.08314 18.736ZM14.568 18.736C14.1566 18.736 13.8062 18.5909 13.5167 18.3006C13.2272 18.0103 13.0825 17.6589 13.0825 17.2464C13.0825 16.8339 13.2272 16.4825 13.5167 16.1923C13.8062 15.902 14.1566 15.7568 14.568 15.7568C14.9793 15.7568 15.3298 15.902 15.6192 16.1923C15.9087 16.4825 16.0535 16.8339 16.0535 17.2464C16.0535 17.6589 15.9087 18.0103 15.6192 18.3006C15.3298 18.5909 14.9793 18.736 14.568 18.736ZM9.08314 13.236C8.67177 13.236 8.32135 13.0909 8.03187 12.8006C7.7424 12.5103 7.59766 12.1589 7.59766 11.7464C7.59766 11.3339 7.7424 10.9825 8.03187 10.6923C8.32135 10.402 8.67177 10.2568 9.08314 10.2568C9.4945 10.2568 9.84492 10.402 10.1344 10.6923C10.4239 10.9825 10.5686 11.3339 10.5686 11.7464C10.5686 12.1589 10.4239 12.5103 10.1344 12.8006C9.84492 13.0909 9.4945 13.236 9.08314 13.236ZM14.568 13.236C14.1566 13.236 13.8062 13.0909 13.5167 12.8006C13.2272 12.5103 13.0825 12.1589 13.0825 11.7464C13.0825 11.3339 13.2272 10.9825 13.5167 10.6923C13.8062 10.402 14.1566 10.2568 14.568 10.2568C14.9793 10.2568 15.3298 10.402 15.6192 10.6923C15.9087 10.9825 16.0535 11.3339 16.0535 11.7464C16.0535 12.1589 15.9087 12.5103 15.6192 12.8006C15.3298 13.0909 14.9793 13.236 14.568 13.236ZM9.08314 7.736C8.67177 7.736 8.32135 7.59086 8.03187 7.30059C7.7424 7.01031 7.59766 6.65892 7.59766 6.24642C7.59766 5.83392 7.7424 5.48253 8.03187 5.19225C8.32135 4.90197 8.67177 4.75684 9.08314 4.75684C9.4945 4.75684 9.84492 4.90197 10.1344 5.19225C10.4239 5.48253 10.5686 5.83392 10.5686 6.24642C10.5686 6.65892 10.4239 7.01031 10.1344 7.30059C9.84492 7.59086 9.4945 7.736 9.08314 7.736ZM14.568 7.736C14.1566 7.736 13.8062 7.59086 13.5167 7.30059C13.2272 7.01031 13.0825 6.65892 13.0825 6.24642C13.0825 5.83392 13.2272 5.48253 13.5167 5.19225C13.8062 4.90197 14.1566 4.75684 14.568 4.75684C14.9793 4.75684 15.3298 4.90197 15.6192 5.19225C15.9087 5.48253 16.0535 5.83392 16.0535 6.24642C16.0535 6.65892 15.9087 7.01031 15.6192 7.30059C15.3298 7.59086 14.9793 7.736 14.568 7.736Z" fill="#6A7187"/>
</g>
</svg>
