<svg width="15" height="15" viewBox="0 0 15 15" fill="none" xmlns="http://www.w3.org/2000/svg">
<path d="M12.8336 9.96646L11.8336 8.93312C12.278 8.8109 12.6391 8.57468 12.9169 8.22445C13.1947 7.87468 13.3336 7.46645 13.3336 6.99979C13.3336 6.44423 13.1391 5.97201 12.7503 5.58312C12.3614 5.19423 11.8891 4.99979 11.3336 4.99979H8.66693V3.66646H11.3336C12.2558 3.66646 13.042 3.99134 13.6923 4.64112C14.342 5.29134 14.6669 6.07757 14.6669 6.99979C14.6669 7.63312 14.5031 8.21645 14.1756 8.74979C13.8476 9.28312 13.4003 9.68868 12.8336 9.96646ZM10.5669 7.66646L9.23359 6.33312H10.6669V7.66646H10.5669ZM13.2003 14.0665L0.933594 1.79979L1.86693 0.866455L14.1336 13.1331L13.2003 14.0665ZM7.33359 10.3331H4.66693C3.7447 10.3331 2.9587 10.008 2.30893 9.35779C1.6587 8.70801 1.33359 7.92201 1.33359 6.99979C1.33359 6.23312 1.56693 5.54979 2.03359 4.94979C2.50026 4.34979 3.10026 3.95534 3.83359 3.76646L5.06693 4.99979H4.66693C4.11137 4.99979 3.63915 5.19423 3.25026 5.58312C2.86137 5.97201 2.66693 6.44423 2.66693 6.99979C2.66693 7.55534 2.86137 8.02757 3.25026 8.41646C3.63915 8.80534 4.11137 8.99979 4.66693 8.99979H7.33359V10.3331ZM5.33359 7.66646V6.33312H6.41693L7.73359 7.66646H5.33359Z" fill="#9DA6C0"/>
</svg>
