<svg width="18" height="21" viewBox="0 0 18 21" fill="none" xmlns="http://www.w3.org/2000/svg">
<path d="M0.998291 17.3V15.6H3.14829V8.125C3.14829 6.675 3.56912 5.3875 4.41079 4.2625C5.25246 3.1375 6.36496 2.425 7.74829 2.125V1.425C7.74829 1.025 7.89412 0.6875 8.18579 0.4125C8.47746 0.1375 8.83162 0 9.24829 0C9.66496 0 10.0191 0.1375 10.3108 0.4125C10.6025 0.6875 10.7483 1.025 10.7483 1.425V2.125C12.1316 2.425 13.2483 3.1375 14.0983 4.2625C14.9483 5.3875 15.3733 6.675 15.3733 8.125V15.6H17.5233V17.3H0.998291ZM9.24829 20.325C8.69829 20.325 8.21912 20.125 7.81079 19.725C7.40246 19.325 7.19829 18.8417 7.19829 18.275H11.2983C11.2983 18.8417 11.0983 19.325 10.6983 19.725C10.2983 20.125 9.81496 20.325 9.24829 20.325ZM4.84829 15.6H13.6733V8.125C13.6733 6.89167 13.2483 5.84167 12.3983 4.975C11.5483 4.10833 10.5066 3.675 9.27329 3.675C8.03996 3.675 6.99412 4.10833 6.13579 4.975C5.27746 5.84167 4.84829 6.89167 4.84829 8.125V15.6Z" fill="white"/>
</svg>
