<svg width="440" height="834" viewBox="0 0 440 834" fill="none" xmlns="http://www.w3.org/2000/svg">
<g clip-path="url(#clip0_201_14)">
<path d="M12.4626 432.02H0.120605V597.009C0.120605 620.873 19.4563 640.211 43.3174 640.211H55.248V475.221C55.6594 451.357 35.9123 432.02 12.4626 432.02Z" fill="#F68C3D"/>
<path d="M235.383 465.753V630.743C235.383 654.607 254.719 673.945 278.58 673.945H290.511V508.955C290.511 485.091 271.175 465.753 247.314 465.753H235.383V465.753Z" fill="#F68C3D"/>
<path d="M131.364 498.269H119.434V663.259C119.434 687.123 138.769 706.461 162.631 706.461H174.561V541.471C174.561 517.607 155.225 498.269 131.364 498.269Z" fill="#F68C3D"/>
<path d="M11.6176 269.498L156.018 189.678C166.303 183.918 173.297 174.866 176.588 163.757C179.879 152.648 178.645 141.127 172.886 130.841L167.126 120.144L22.7253 200.376C12.4404 205.724 5.44661 215.188 2.15542 226.297C-1.13576 237.406 0.0984309 248.926 5.85801 259.212L11.6176 269.498Z" fill="#F37021"/>
<path d="M257.157 353.03L251.397 342.332L106.997 422.153C86.0152 433.673 78.61 460.006 90.1292 480.989L95.8887 491.687L240.29 411.455C261.271 399.934 268.676 373.602 257.157 353.03Z" fill="#F37021"/>
<path d="M11.1798 405.687L155.581 325.866C176.562 314.346 183.967 288.013 172.448 267.03L166.688 256.332L22.2875 336.564C1.30619 348.085 -6.09899 374.417 5.42017 395.401L11.1798 405.687Z" fill="#F37021"/>
<path d="M464.495 202.446C464.495 178.582 445.159 159.244 421.298 159.244H409.367V324.234C409.367 348.098 428.703 367.436 452.564 367.436H464.495V202.446Z" fill="#0080C6"/>
<path d="M201.583 262.099L345.984 341.919L351.744 331.221C363.263 310.238 355.858 283.905 334.876 272.385L190.887 192.976L185.127 203.673C173.197 224.245 181.013 250.578 201.583 262.099Z" fill="#006AAC"/>
<path d="M339.814 69.5344L484.215 149.355L489.974 138.657C501.494 117.674 494.088 91.341 473.107 79.8205L328.706 0L322.947 10.6976C317.187 20.9837 315.953 32.5042 319.244 43.6133C322.535 54.7223 329.529 63.7741 339.814 69.5344Z" fill="#006AAC"/>
<path d="M225.95 140.308L370.351 220.129L376.11 209.431C381.87 199.145 383.104 187.625 379.813 176.516C376.522 165.407 369.116 156.355 359.243 150.595L214.842 71.1855L209.082 81.8831C197.563 102.455 204.968 128.788 225.95 140.308Z" fill="#006AAC"/>
<path d="M447.265 473.98L453.024 484.677L597.425 404.857C618.407 393.336 625.812 367.004 614.293 346.02L608.533 335.322L464.132 415.554C443.562 427.075 435.746 453.407 447.265 473.98Z" fill="#00A7E1"/>
<path d="M364.169 764.466L219.768 684.646L214.009 695.343C202.49 716.327 209.895 742.659 230.876 754.18L375.277 834L381.037 823.303C392.556 802.319 385.151 775.987 364.169 764.466Z" fill="#FAA634"/>
<path d="M502.347 571.908L357.946 492.087L352.187 502.785C340.668 523.769 348.073 550.101 369.054 561.622L513.455 641.442L519.215 630.745C530.734 609.761 522.917 583.428 502.347 571.908Z" fill="#FAA634"/>
<path d="M475.192 688.767L330.791 608.946L325.032 619.644C313.513 640.628 320.918 666.96 341.899 678.481L486.3 758.301L492.06 747.604C497.819 737.317 499.053 725.797 495.762 714.688C492.882 703.167 485.477 694.116 475.192 688.767Z" fill="#FAA634"/>
</g>
<defs>
<clipPath id="clip0_201_14">
<rect width="440" height="834" fill="white"/>
</clipPath>
</defs>
</svg>
