<svg width="440" height="834" viewBox="0 0 440 834" fill="none" xmlns="http://www.w3.org/2000/svg">
<path d="M12.4616 432.003H0.120117V596.987C0.120117 620.85 19.4551 640.187 43.3153 640.187H55.2454V475.203C55.6568 451.34 35.9104 432.003 12.4616 432.003Z" fill="#1B2226"/>
<path d="M235.375 465.736V630.72C235.375 654.583 254.71 673.92 278.57 673.92H290.5V508.936C290.5 485.073 271.165 465.736 247.305 465.736H235.375Z" fill="#1B2226"/>
<path d="M131.359 498.251H119.429V663.234C119.429 687.097 138.764 706.435 162.624 706.435H174.555V541.451C174.555 517.588 155.22 498.251 131.359 498.251Z" fill="#1B2226"/>
<path d="M11.6183 269.489L156.014 189.671C166.298 183.911 173.292 174.86 176.583 163.751C179.874 152.642 178.64 141.122 172.88 130.836L167.121 120.139L22.7256 200.368C12.441 205.717 5.44752 215.18 2.15645 226.288C-1.13461 237.397 0.0995392 248.917 5.8589 259.203L11.6183 269.489Z" fill="#1B2226"/>
<path d="M257.149 353.016L251.389 342.319L106.994 422.136C86.0132 433.656 78.6083 459.988 90.127 480.971L95.8864 491.668L240.282 411.439C261.262 399.919 268.667 373.587 257.149 353.016Z" fill="#1B2226"/>
<path d="M11.1793 405.671L155.575 325.854C176.555 314.334 183.96 288.002 172.442 267.019L166.682 256.322L22.2867 336.551C1.30614 348.071 -6.09876 374.403 5.41997 395.386L11.1793 405.671Z" fill="#1B2226"/>
<path d="M464.477 202.439C464.477 178.576 445.142 159.239 421.282 159.239H409.352V324.222C409.352 348.085 428.687 367.423 452.547 367.423H464.477V202.439Z" fill="#1B2226"/>
<path d="M201.576 262.088L345.972 341.906L351.731 331.209C363.25 310.226 355.845 283.894 334.864 272.374L190.88 192.968L185.121 203.665C173.191 224.237 181.007 250.568 201.576 262.088Z" fill="#1B2226"/>
<path d="M339.801 69.5318L484.197 149.349L489.956 138.652C501.475 117.669 494.07 91.3376 473.089 79.8176L328.694 0L322.935 10.6972C317.175 20.983 315.941 32.503 319.232 43.6117C322.523 54.7203 329.517 63.7718 339.801 69.5318Z" fill="#1B2226"/>
<path d="M225.941 140.303L370.337 220.12L376.096 209.423C381.856 199.137 383.09 187.617 379.799 176.509C376.508 165.4 369.103 156.349 359.23 150.589L214.834 71.1824L209.075 81.8796C197.556 102.451 204.961 128.783 225.941 140.303Z" fill="#1B2226"/>
<path d="M447.248 473.961L453.008 484.658L597.403 404.841C618.384 393.321 625.789 366.989 614.27 346.006L608.511 335.309L464.115 415.538C443.546 427.058 435.73 453.389 447.248 473.961Z" fill="#1B2226"/>
<path d="M364.156 764.437L219.76 684.62L214.001 695.317C202.482 716.3 209.887 742.631 230.868 754.151L375.263 833.969L381.023 823.272C392.541 802.289 385.136 775.957 364.156 764.437Z" fill="#1B2226"/>
<path d="M502.328 571.886L357.933 492.069L352.173 502.766C340.655 523.749 348.06 550.08 369.04 561.601L513.436 641.418L519.195 630.721C530.714 609.738 522.897 583.406 502.328 571.886Z" fill="#1B2226"/>
<path d="M475.175 688.741L330.779 608.924L325.02 619.621C313.501 640.604 320.906 666.935 341.887 678.455L486.282 758.273L492.042 747.576C497.801 737.29 499.035 725.77 495.744 714.661C492.864 703.141 485.459 694.09 475.175 688.741Z" fill="#1B2226"/>
</svg>