<svg width="16" height="16" viewBox="0 0 16 16" fill="none" xmlns="http://www.w3.org/2000/svg">
<path fill-rule="evenodd" clip-rule="evenodd" d="M12 14H4C2.89533 14 2 13.1047 2 12V4C2 2.89533 2.89533 2 4 2H12C13.1047 2 14 2.89533 14 4V12C14 13.1047 13.1047 14 12 14Z" stroke="#656565" stroke-width="1.3" stroke-linecap="round" stroke-linejoin="round"/>
<path d="M2 11.6569L5.07467 8.58227C5.33533 8.3216 5.75733 8.3216 6.01733 8.58227L6.95467 9.5196L10.006 6.46894C10.2667 6.20827 10.6887 6.20827 10.9487 6.46894L14 9.52027" stroke="#656565" stroke-width="1.3" stroke-linecap="round" stroke-linejoin="round"/>
<path d="M5.6771 4.93781C5.77473 5.03544 5.77473 5.19373 5.6771 5.29136C5.57947 5.38899 5.42118 5.38899 5.32355 5.29136C5.22592 5.19373 5.22592 5.03544 5.32355 4.93781C5.42118 4.84018 5.57947 4.84018 5.6771 4.93781" stroke="#656565" stroke-width="1.3" stroke-linecap="round" stroke-linejoin="round"/>
</svg>
