<svg width="18" height="17" viewBox="0 0 18 17" fill="none" xmlns="http://www.w3.org/2000/svg">
<path d="M8.99827 7.9001C7.84827 7.9001 6.91077 7.5376 6.18577 6.8126C5.46077 6.0876 5.09827 5.1501 5.09827 4.0001C5.09827 2.8501 5.46077 1.9126 6.18577 1.1876C6.91077 0.462598 7.84827 0.100098 8.99827 0.100098C10.1483 0.100098 11.0858 0.462598 11.8108 1.1876C12.5358 1.9126 12.8983 2.8501 12.8983 4.0001C12.8983 5.1501 12.5358 6.0876 11.8108 6.8126C11.0858 7.5376 10.1483 7.9001 8.99827 7.9001ZM0.848267 16.2251V13.7251C0.848267 13.0584 1.01493 12.4876 1.34827 12.0126C1.6816 11.5376 2.1066 11.1751 2.62327 10.9251C3.7566 10.4251 4.83993 10.0501 5.87327 9.8001C6.9066 9.5501 7.94827 9.4251 8.99827 9.4251C10.0483 9.4251 11.0858 9.55426 12.1108 9.8126C13.1358 10.0709 14.2149 10.4501 15.3483 10.9501C15.8816 11.1834 16.3149 11.5376 16.6483 12.0126C16.9816 12.4876 17.1483 13.0584 17.1483 13.7251V16.2251H0.848267ZM2.54827 14.5251H15.4483V13.7501C15.4483 13.4834 15.3691 13.2293 15.2108 12.9876C15.0524 12.7459 14.8566 12.5668 14.6233 12.4501C13.5733 11.9501 12.6108 11.6043 11.7358 11.4126C10.8608 11.2209 9.94827 11.1251 8.99827 11.1251C8.04827 11.1251 7.12743 11.2209 6.23577 11.4126C5.3441 11.6043 4.3816 11.9501 3.34827 12.4501C3.11493 12.5668 2.92327 12.7459 2.77327 12.9876C2.62327 13.2293 2.54827 13.4834 2.54827 13.7501V14.5251ZM8.99827 6.2001C9.6316 6.2001 10.1566 5.99176 10.5733 5.5751C10.9899 5.15843 11.1983 4.63343 11.1983 4.0001C11.1983 3.36676 10.9899 2.84176 10.5733 2.4251C10.1566 2.00843 9.6316 1.8001 8.99827 1.8001C8.36493 1.8001 7.83993 2.00843 7.42327 2.4251C7.0066 2.84176 6.79827 3.36676 6.79827 4.0001C6.79827 4.63343 7.0066 5.15843 7.42327 5.5751C7.83993 5.99176 8.36493 6.2001 8.99827 6.2001Z" fill="white"/>
</svg>
