<svg width="18" height="18" viewBox="0 0 18 18" fill="none" xmlns="http://www.w3.org/2000/svg">
<path d="M16.1762 17.2508L10.2954 11.37C9.83234 11.725 9.29982 12.0105 8.69784 12.2266C8.09587 12.4427 7.4553 12.5508 6.77615 12.5508C5.06283 12.5508 3.61192 11.9525 2.4234 10.7559C1.23488 9.56001 0.640625 8.10539 0.640625 6.39208C0.640625 4.67876 1.23488 3.22383 2.4234 2.02729C3.61192 0.831362 5.06283 0.233398 6.77615 0.233398C8.48947 0.233398 9.9444 0.831362 11.1409 2.02729C12.3369 3.22383 12.9348 4.67876 12.9348 6.39208C12.9348 7.07123 12.8308 7.71179 12.6227 8.31377C12.414 8.91574 12.1322 9.44054 11.7772 9.88817L17.6349 15.769L16.1762 17.2508ZM6.77615 10.4207C7.90293 10.4207 8.85991 10.0308 9.64711 9.251C10.4343 8.47183 10.8279 7.51885 10.8279 6.39208C10.8279 5.2653 10.4343 4.31202 9.64711 3.53223C8.85991 2.75305 7.90293 2.36347 6.77615 2.36347C5.64937 2.36347 4.6964 2.75305 3.91723 3.53223C3.13744 4.31202 2.74754 5.2653 2.74754 6.39208C2.74754 7.51885 3.13744 8.47183 3.91723 9.251C4.6964 10.0308 5.64937 10.4207 6.77615 10.4207Z" fill="#D5E2F0"/>
</svg>
