<svg width="24" height="24" viewBox="0 0 24 24" fill="none" xmlns="http://www.w3.org/2000/svg">
<g id="Group 90046">
<g id="check_box">
<mask id="mask0_1672_3254" style="mask-type:alpha" maskUnits="userSpaceOnUse" x="0" y="0" width="24" height="24">
<rect id="Bounding box" width="24" height="24" fill="#D9D9D9"/>
</mask>
<g mask="url(#mask0_1672_3254)">
<rect id="Rectangle 1373" x="4" y="4" width="16" height="16" rx="2" fill="#1D222F"/>
<g id="Group 90052">
<rect id="Rectangle 1374" x="8" y="8.42578" width="8" height="8" rx="0.5" fill="#0080C5"/>
<path id="check_box_2" d="M5.3 21C4.8 21 4.375 20.825 4.025 20.475C3.675 20.125 3.5 19.7 3.5 19.2V5.8C3.5 5.3 3.675 4.875 4.025 4.525C4.375 4.175 4.8 4 5.3 4H18.7C19.2 4 19.625 4.175 19.975 4.525C20.325 4.875 20.5 5.3 20.5 5.8V19.2C20.5 19.7 20.325 20.125 19.975 20.475C19.625 20.825 19.2 21 18.7 21H5.3ZM5.3 19.5H18.7C18.7667 19.5 18.8333 19.4667 18.9 19.4C18.9667 19.3333 19 19.2667 19 19.2V5.8C19 5.73333 18.9667 5.66667 18.9 5.6C18.8333 5.53333 18.7667 5.5 18.7 5.5H5.3C5.23333 5.5 5.16667 5.53333 5.1 5.6C5.03333 5.66667 5 5.73333 5 5.8V19.2C5 19.2667 5.03333 19.3333 5.1 19.4C5.16667 19.4667 5.23333 19.5 5.3 19.5Z" fill="#6A7187"/>
</g>
</g>
</g>
</g>
</svg>
