<svg width="23" height="29" viewBox="0 0 23 29" fill="none" xmlns="http://www.w3.org/2000/svg">
<path d="M0.405145 14.5449H0.00390625V20.0997C0.00390625 20.9031 0.632514 21.5542 1.40824 21.5542H1.79611V15.9994C1.80948 15.196 1.1675 14.5449 0.405145 14.5449Z" fill="#F68C3D"/>
<path d="M7.65234 15.6809V21.2357C7.65234 22.0391 8.28095 22.6902 9.05668 22.6902H9.44454V17.1354C9.44454 16.332 8.81594 15.6809 8.04021 15.6809H7.65234Z" fill="#F68C3D"/>
<path d="M4.27068 16.7751H3.88281V22.3299C3.88281 23.1333 4.51142 23.7844 5.28715 23.7844H5.67501V18.2296C5.67501 17.4262 5.0464 16.7751 4.27068 16.7751Z" fill="#F68C3D"/>
<path d="M0.377697 9.0733L5.07219 6.38596C5.40656 6.19203 5.63393 5.88728 5.74092 5.51326C5.84792 5.13925 5.8078 4.75139 5.62055 4.40508L5.43331 4.04492L0.738812 6.74612C0.404446 6.9262 0.177078 7.2448 0.0700808 7.61881C-0.0369163 7.99282 0.00320763 8.38069 0.190452 8.727L0.377697 9.0733Z" fill="#F37021"/>
<path d="M8.36022 11.8853L8.17297 11.5251L3.47848 14.2125C2.79637 14.6004 2.55563 15.4869 2.93012 16.1934L3.11736 16.5535L7.81186 13.8523C8.49396 13.4645 8.73471 12.5779 8.36022 11.8853Z" fill="#F37021"/>
<path d="M0.363455 13.6583L5.05795 10.9709C5.74006 10.5831 5.9808 9.69651 5.60631 8.99004L5.41906 8.62988L0.72457 11.3311C0.0424644 11.7189 -0.198279 12.6055 0.176211 13.312L0.363455 13.6583Z" fill="#F37021"/>
<path d="M15.1008 6.81557C15.1008 6.01214 14.4722 5.36108 13.6965 5.36108H13.3086V10.9159C13.3086 11.7193 13.9372 12.3703 14.7129 12.3703H15.1008V6.81557Z" fill="#0080C6"/>
<path d="M22.3496 13.5063H22.7375V7.95156C22.7375 7.14813 22.1089 6.49707 21.3332 6.49707H20.9453V12.0518C20.9453 12.8553 21.5739 13.5063 22.3496 13.5063Z" fill="#0080C6"/>
<path d="M18.5801 11.2622H18.968V5.70742C18.968 4.90399 18.3394 4.25293 17.5636 4.25293H17.1758V9.8077C17.1758 10.6111 17.8044 11.2622 18.5801 11.2622Z" fill="#0080C6"/>
<path d="M6.55351 8.82425L11.248 11.5116L11.4352 11.1514C11.8097 10.445 11.569 9.55843 10.8869 9.17056L6.20577 6.49707L6.01852 6.85723C5.63066 7.54984 5.88477 8.43639 6.55351 8.82425Z" fill="#006AAC"/>
<path d="M11.0474 2.34104L15.7419 5.02838L15.9291 4.66822C16.3036 3.96175 16.0629 3.07521 15.3808 2.68734L10.6863 0L10.499 0.36016C10.3118 0.706467 10.2717 1.09433 10.3787 1.46834C10.4857 1.84235 10.713 2.1471 11.0474 2.34104Z" fill="#006AAC"/>
<path d="M7.34566 4.72367L12.0402 7.41101L12.2274 7.05085C12.4146 6.70455 12.4548 6.31668 12.3478 5.94267C12.2408 5.56866 12 5.26391 11.679 5.06998L6.98455 2.39648L6.7973 2.75664C6.42281 3.44926 6.66356 4.3358 7.34566 4.72367Z" fill="#006AAC"/>
<path d="M14.5406 15.9575L14.7279 16.3177L19.4224 13.6303C20.1045 13.2425 20.3452 12.3559 19.9707 11.6495L19.7835 11.2893L15.089 13.9905C14.4203 14.3784 14.1662 15.2649 14.5406 15.9575Z" fill="#00A7E1"/>
<path d="M22.7118 19.1302L22.5245 18.77L17.83 21.4574C17.1479 21.8452 16.9072 22.7318 17.2817 23.4382L17.4689 23.7984L22.1634 21.1111C22.8455 20.7093 23.0863 19.8228 22.7118 19.1302Z" fill="#00A7E1"/>
<path d="M17.4441 19.2684L22.1386 16.581C22.8207 16.1932 23.0614 15.3066 22.687 14.6001L22.4997 14.24L17.8052 16.9273C17.4709 17.1213 17.2435 17.426 17.1365 17.8C17.0295 18.174 17.0696 18.5619 17.2569 18.9082L17.4441 19.2684Z" fill="#00A7E1"/>
<path d="M11.8392 25.7376L7.14471 23.0503L6.95746 23.4105C6.58297 24.1169 6.82371 25.0035 7.50582 25.3913L12.2003 28.0787L12.3876 27.7185C12.762 27.012 12.5213 26.1255 11.8392 25.7376Z" fill="#FAA634"/>
<path d="M16.3314 19.2547L11.6369 16.5674L11.4496 16.9275C11.0752 17.634 11.3159 18.5206 11.998 18.9084L16.6925 21.5958L16.8797 21.2356C17.2542 20.5291 17.0001 19.6426 16.3314 19.2547Z" fill="#FAA634"/>
<path d="M15.4486 23.1888L10.7541 20.5015L10.5668 20.8616C10.1923 21.5681 10.4331 22.4546 11.1152 22.8425L15.8097 25.5298L15.9969 25.1697C16.1842 24.8234 16.2243 24.4355 16.1173 24.0615C16.0237 23.6736 15.7829 23.3689 15.4486 23.1888Z" fill="#FAA634"/>
</svg>
