<svg width="80" height="24" viewBox="0 0 80 24" fill="none" xmlns="http://www.w3.org/2000/svg">
<path d="M0.539062 13.3843C0.539062 10.8494 1.42179 8.6884 3.17386 6.90146C4.93931 5.11451 7.06588 4.21411 9.55356 4.21411C12.0412 4.21411 14.1678 5.11451 15.9333 6.90146C17.6987 8.6884 18.5681 10.8494 18.5681 13.3843C18.5681 15.8916 17.6853 18.0387 15.9333 19.8256C14.1678 21.6126 12.0412 22.513 9.55356 22.513C7.06588 22.513 4.93931 21.6126 3.17386 19.8256C1.42179 18.0387 0.539062 15.8916 0.539062 13.3843ZM4.4177 13.3843C4.4177 14.8804 4.92594 16.1409 5.92904 17.166C6.93213 18.1911 8.14922 18.7175 9.56693 18.7175C10.9846 18.7175 12.2017 18.2049 13.2048 17.166C14.2079 16.1409 14.7162 14.8804 14.7162 13.3843C14.7162 11.916 14.2079 10.6554 13.2048 9.60265C12.2017 8.54988 10.9846 8.02349 9.56693 8.02349C8.14922 8.02349 6.93213 8.54988 5.92904 9.60265C4.91256 10.6554 4.4177 11.916 4.4177 13.3843Z" fill="white"/>
<path d="M20.2539 23.1885V5.60992H24.0657V9.08684C24.4535 8.04792 25.1624 7.14752 26.1789 6.38564C27.1953 5.62377 28.5462 5.24976 30.2046 5.24976V9.54397C26.112 9.54397 24.0657 11.7049 24.0657 16.013V23.1885H20.2539Z" fill="white"/>
<path d="M30.0977 13.3843C30.0977 10.8494 30.9403 8.6884 32.6388 6.90146C34.3374 5.11451 36.3971 4.21411 38.8447 4.21411C41.105 4.21411 43.0309 5.10066 44.6225 6.8599C46.2141 8.61914 47.0032 10.7524 47.0032 13.232L46.8962 14.7557H34.0298C34.3107 16.0994 34.9259 17.1521 35.8755 17.9002C36.8385 18.6482 37.9753 19.0222 39.2994 19.0222C41.1451 19.0222 42.7768 18.5097 44.1678 17.4985L45.6791 20.4074C43.6863 21.8065 41.5463 22.4991 39.2325 22.4991C36.6913 22.4991 34.538 21.6818 32.7458 20.0334C30.9938 18.3989 30.0977 16.1686 30.0977 13.3843ZM34.0164 11.8467H43.3118C43.1245 10.5862 42.6029 9.57495 41.7336 8.81307C40.8642 8.03734 39.8344 7.66333 38.644 7.66333C37.5473 7.66333 36.5576 8.0512 35.6883 8.81307C34.8189 9.5888 34.2572 10.6 34.0164 11.8467Z" fill="white"/>
<path d="M57.2729 13.2171L63.9201 5.32131H59.2256L52.525 13.5911V0.0712891H48.7266V22.8999H52.525V18.855L54.9591 15.9599L60.523 22.8999H65.1506L57.2729 13.2171Z" fill="white"/>
<path d="M63.6797 13.3843C63.6797 10.8078 64.4287 8.63299 65.9266 6.8599C67.4246 5.10066 69.3372 4.21411 71.6777 4.21411C73.9915 4.21411 75.8238 5.25303 77.2014 7.34473V4.57427H80.9998V22.1528H77.1881V19.4239C75.8372 21.4879 74.0049 22.513 71.6643 22.513C69.3372 22.513 67.4112 21.6264 65.9133 19.8672C64.4287 18.0941 63.6797 15.9331 63.6797 13.3843ZM68.9493 9.54724C68.0264 10.5723 67.5583 11.8467 67.5583 13.3843C67.5583 14.9219 68.0264 16.1963 68.9493 17.2076C69.8721 18.2188 71.0625 18.7175 72.4936 18.7175C73.8444 18.7175 74.9679 18.2188 75.8506 17.2214C76.7467 16.224 77.1881 14.9496 77.1881 13.3843C77.1881 11.8467 76.7467 10.5723 75.8506 9.54724C74.9545 8.53603 73.8444 8.02349 72.4936 8.02349C71.0491 8.00964 69.8721 8.52217 68.9493 9.54724Z" fill="white"/>
</svg>
