<svg width="22" height="22" viewBox="0 0 22 22" fill="none" xmlns="http://www.w3.org/2000/svg">
<path d="M8.7725 21.1501L8.2475 17.9501C7.96416 17.8501 7.65583 17.7043 7.3225 17.5126C6.98916 17.3209 6.6975 17.1251 6.4475 16.9251L3.4725 18.3001L0.997498 13.9501L3.7475 11.9501C3.71416 11.8168 3.69333 11.6584 3.685 11.4751C3.67666 11.2918 3.6725 11.1334 3.6725 11.0001C3.6725 10.8668 3.67666 10.7084 3.685 10.5251C3.69333 10.3418 3.71416 10.1834 3.7475 10.0501L0.997498 8.0501L3.4725 3.7001L6.4725 5.0751C6.70583 4.8751 6.98916 4.68343 7.3225 4.5001C7.65583 4.31676 7.96416 4.1751 8.2475 4.0751L8.7725 0.850098H13.6225L14.1475 4.0501C14.4308 4.16676 14.7433 4.3126 15.085 4.4876C15.4267 4.6626 15.7142 4.85843 15.9475 5.0751L18.9475 3.7001L21.3975 8.0501L18.6475 10.0001C18.6808 10.1501 18.7017 10.3168 18.71 10.5001C18.7183 10.6834 18.7225 10.8501 18.7225 11.0001C18.7225 11.1501 18.7183 11.3126 18.71 11.4876C18.7017 11.6626 18.6808 11.8251 18.6475 11.9751L21.3975 13.9501L18.9225 18.3001L15.9225 16.9251C15.6892 17.1251 15.41 17.3251 15.085 17.5251C14.76 17.7251 14.4475 17.8668 14.1475 17.9501L13.6225 21.1501H8.7725ZM11.1975 14.2501C12.0975 14.2501 12.8642 13.9334 13.4975 13.3001C14.1308 12.6668 14.4475 11.9001 14.4475 11.0001C14.4475 10.1001 14.1308 9.33343 13.4975 8.7001C12.8642 8.06676 12.0975 7.7501 11.1975 7.7501C10.2975 7.7501 9.53083 8.06676 8.8975 8.7001C8.26416 9.33343 7.9475 10.1001 7.9475 11.0001C7.9475 11.9001 8.26416 12.6668 8.8975 13.3001C9.53083 13.9334 10.2975 14.2501 11.1975 14.2501ZM11.1975 12.7501C10.6975 12.7501 10.2808 12.5793 9.9475 12.2376C9.61416 11.8959 9.4475 11.4834 9.4475 11.0001C9.4475 10.5168 9.61416 10.1043 9.9475 9.7626C10.2808 9.42093 10.6975 9.2501 11.1975 9.2501C11.6808 9.2501 12.0933 9.42093 12.435 9.7626C12.7767 10.1043 12.9475 10.5168 12.9475 11.0001C12.9475 11.4834 12.7767 11.8959 12.435 12.2376C12.0933 12.5793 11.6808 12.7501 11.1975 12.7501ZM10.1475 19.4501H12.2475L12.5975 16.6501C13.1475 16.5168 13.6725 16.3084 14.1725 16.0251C14.6725 15.7418 15.1225 15.3918 15.5225 14.9751L18.1725 16.1251L19.1225 14.4001L16.7725 12.7001C16.8392 12.4168 16.8975 12.1334 16.9475 11.8501C16.9975 11.5668 17.0225 11.2834 17.0225 11.0001C17.0225 10.7168 17.0017 10.4334 16.96 10.1501C16.9183 9.86676 16.8558 9.58343 16.7725 9.3001L19.1225 7.6001L18.1725 5.8751L15.5225 7.0251C15.1392 6.5751 14.7017 6.2001 14.21 5.9001C13.7183 5.6001 13.1808 5.41676 12.5975 5.3501L12.2475 2.5501H10.1475L9.7975 5.3501C9.23083 5.4501 8.6975 5.64593 8.1975 5.9376C7.6975 6.22926 7.2475 6.59176 6.8475 7.0251L4.2225 5.8751L3.2725 7.6001L5.5975 9.3001C5.53083 9.58343 5.47666 9.86676 5.435 10.1501C5.39333 10.4334 5.3725 10.7168 5.3725 11.0001C5.3725 11.2834 5.39333 11.5668 5.435 11.8501C5.47666 12.1334 5.53083 12.4168 5.5975 12.7001L3.2725 14.4001L4.2225 16.1251L6.8475 14.9751C7.26416 15.3918 7.7225 15.7418 8.2225 16.0251C8.7225 16.3084 9.2475 16.5168 9.7975 16.6501L10.1475 19.4501Z" fill="white"/>
</svg>
